<svg width="15" height="17" viewBox="0 0 15 17" fill="none" xmlns="http://www.w3.org/2000/svg">
<path d="M12.5 12.5H2.5V10.8333H12.5V12.5ZM12.5 9.16667H2.5V7.5H12.5V9.16667ZM12.5 5.83333H2.5V4.16667H12.5V5.83333ZM0 16.6667L1.25 15.4167L2.5 16.6667L3.75 15.4167L5 16.6667L6.25 15.4167L7.5 16.6667L8.75 15.4167L10 16.6667L11.25 15.4167L12.5 16.6667L13.75 15.4167L15 16.6667V0L13.75 1.25L12.5 0L11.25 1.25L10 0L8.75 1.25L7.5 0L6.25 1.25L5 0L3.75 1.25L2.5 0L1.25 1.25L0 0V16.6667Z" fill="#1B212D"/>
</svg>
